<svg width="23" height="23" viewBox="0 0 23 23" fill="none" xmlns="http://www.w3.org/2000/svg">
<path d="M4.74444 19.8771L6.35311 18.5082L6.36367 18.4992C6.69933 18.2129 6.86928 18.0691 7.05822 17.967C7.22711 17.8749 7.40761 17.8075 7.59444 17.7671C7.8045 17.721 8.023 17.721 8.46211 17.721H17.6254C18.8055 17.721 19.3966 17.721 19.8473 17.4762C20.2445 17.2609 20.5675 16.9174 20.7699 16.4948C21 16.0142 21 15.3853 21 14.1322V5.59001C21 4.33457 21 3.70573 20.7699 3.22624C20.5672 2.80355 20.2438 2.45999 19.8463 2.2448C19.3956 2 18.8044 2 17.6222 2H5.37778C4.19556 2 3.60444 2 3.15267 2.2448C2.75541 2.46005 2.43245 2.80363 2.23011 3.22624C2 3.70686 2 4.3357 2 5.59338V18.4745C2 19.6716 2 20.2701 2.23011 20.5767C2.32906 20.7088 2.45477 20.8155 2.59787 20.8888C2.74098 20.9621 2.89778 21.0001 3.05661 21C3.42606 21 3.86517 20.6249 4.74444 19.8771Z" stroke="black" stroke-width="3" stroke-linecap="round" stroke-linejoin="round"/>
</svg>
