<svg width="28" height="23" viewBox="0 0 28 23" fill="none" xmlns="http://www.w3.org/2000/svg">
<path d="M8.08057 16.579H7.93057V16.729V20.0222C7.93057 20.7309 8.1739 21.3335 8.66049 21.8201C9.14708 22.3067 9.74966 22.55 10.4583 22.55H24.725C25.4337 22.55 26.0363 22.3067 26.5229 21.8201C27.0094 21.3335 27.2528 20.7309 27.2528 20.0222V1V0.85H27.1028H11.6472H11.4972V1V16.579H8.08057ZM24.725 21.0611H24.7246C24.4267 21.0618 24.1834 20.9626 23.9846 20.7638C23.7858 20.565 23.6861 20.3212 23.6861 20.0222V16.729V16.579H23.5361H12.9861V2.33889H25.7639V20.0222V20.0226C25.7646 20.3205 25.6654 20.5639 25.4666 20.7626C25.2678 20.9614 25.024 21.0611 24.725 21.0611ZM14.3327 7.40216V7.55216H14.4827H24.2673H24.4173V7.40216V6.21327V6.06327H24.2673H14.4827H14.3327V6.21327V7.40216ZM14.3327 10.6942V10.8442H14.4827H24.2673H24.4173V10.6942V9.50531V9.35531H24.2673H14.4827H14.3327V9.50531V10.6942ZM9.41945 18.0679H22.1972V21.0611H10.4583H10.458H10.4517C10.1566 21.0604 9.91531 20.9612 9.71792 20.7638C9.51912 20.565 9.41945 20.3212 9.41945 20.0222V18.0679Z" fill="#030303" stroke="#030303" stroke-width="0.3"/>
<path d="M8.276 8.37369H8.426V8.22369V7.12516V6.97516H8.276H5.3872V4.0293V3.8793H5.2372H4.02453H3.87453V4.0293V6.97516H1H0.85V7.12516V8.22369V8.37369H1H3.87453V11.3053V11.4553H4.02453H5.2372H5.3872V11.3053V8.37369H8.276Z" fill="#030303" stroke="#030303" stroke-width="0.3"/>
</svg>
