<svg width="23" height="21" viewBox="0 0 23 21" fill="none" xmlns="http://www.w3.org/2000/svg">
<path d="M11.4592 18.9948L10.9655 19.4961C11.0303 19.562 11.1072 19.6143 11.1919 19.65C11.2767 19.6857 11.3675 19.7041 11.4592 19.7041C11.5509 19.7041 11.6417 19.6857 11.7264 19.65C11.8111 19.6143 11.8881 19.562 11.9529 19.4961L11.4592 18.9948ZM11.4592 4.83569L10.9655 5.33692C11.0303 5.40285 11.1072 5.45516 11.1919 5.49085C11.2767 5.52654 11.3675 5.54491 11.4592 5.54491C11.5509 5.54491 11.6417 5.52654 11.7264 5.49085C11.8111 5.45516 11.8881 5.40285 11.9529 5.33692L11.4592 4.83569ZM11.9529 18.4936L3.63432 10.0491L2.64837 11.0501L10.9655 19.4961L11.9529 18.4936ZM19.284 10.0491L10.9655 18.4936L11.9529 19.4961L20.27 11.0501L19.284 10.0491ZM9.62116 3.97056L10.9655 5.33692L11.9529 4.33445L10.6071 2.96951L9.62116 3.97056ZM11.9529 5.33692L13.2972 3.97056L12.3113 2.96951L10.9655 4.33445L11.9529 5.33692ZM16.2899 1.2959C14.7978 1.2959 13.3669 1.89766 12.3113 2.96951L13.2972 3.97056C14.0911 3.16491 15.1675 2.71218 16.2899 2.71181V1.2959ZM20.5238 7.01053C20.5238 8.15034 20.0775 9.24343 19.2827 10.0491L20.27 11.0501C21.3252 9.97872 21.9181 8.52569 21.9184 7.01053H20.5238ZM21.9184 7.01053C21.9184 5.49492 21.3254 4.04138 20.2698 2.96968C19.2143 1.89797 17.7827 1.2959 16.2899 1.2959V2.71181C17.4128 2.71181 18.4897 3.16471 19.2837 3.97088C20.0777 4.77705 20.5238 5.87044 20.5238 7.01053H21.9184ZM6.62844 2.71181C7.75105 2.71181 8.82765 3.16491 9.62116 3.97198L10.6071 2.96951C9.55185 1.89818 8.12074 1.29619 6.62844 1.2959V2.71181ZM2.39456 7.01053C2.39456 5.87044 2.84063 4.77705 3.63463 3.97088C4.42864 3.16471 5.50554 2.71181 6.62844 2.71181V1.2959C5.13568 1.2959 3.70407 1.89797 2.64853 2.96968C1.59299 4.04138 1 5.49492 1 7.01053H2.39456ZM3.63432 10.0491C3.24104 9.65018 2.9304 9.17652 2.71744 8.65516C2.50448 8.1338 2.39477 7.57495 2.39456 7.01053H1C1 8.52556 1.59269 9.97829 2.64837 11.0501L3.63432 10.0491Z" fill="#030303"/>
<path d="M10.9655 19.4961L11.4592 18.9948L11.9529 19.4961M10.9655 19.4961C11.0303 19.562 11.1072 19.6143 11.1919 19.65C11.2767 19.6857 11.3675 19.7041 11.4592 19.7041C11.5509 19.7041 11.6417 19.6857 11.7264 19.65C11.8111 19.6143 11.8881 19.562 11.9529 19.4961M10.9655 19.4961L2.64837 11.0501M10.9655 19.4961L11.9529 18.4936L3.63432 10.0491M11.9529 19.4961L10.9655 18.4936L19.284 10.0491L20.27 11.0501M11.9529 19.4961L20.27 11.0501M3.14204 10.5503L2.64837 11.0501M2.64837 11.0501L3.63432 10.0491M2.64837 11.0501C1.59269 9.97829 1 8.52556 1 7.01053M10.1148 3.47074L9.62116 3.97056M9.62116 3.97056L10.9655 5.33692M9.62116 3.97056L10.6071 2.96951M10.9655 5.33692L11.4592 4.83569L11.9529 5.33692M10.9655 5.33692C11.0303 5.40285 11.1072 5.45516 11.1919 5.49085C11.2767 5.52654 11.3675 5.54491 11.4592 5.54491C11.5509 5.54491 11.6417 5.52654 11.7264 5.49085C11.8111 5.45516 11.8881 5.40285 11.9529 5.33692M10.9655 5.33692L11.9529 4.33445L10.6071 2.96951M11.9529 5.33692L13.2972 3.97056M11.9529 5.33692L10.9655 4.33445L12.3113 2.96951M12.8035 3.47074L12.3113 2.96951M12.3113 2.96951L13.2972 3.97056M12.3113 2.96951C13.3669 1.89766 14.7978 1.2959 16.2899 1.2959M3.63432 10.0491C3.24104 9.65018 2.9304 9.17652 2.71744 8.65516C2.50448 8.1338 2.39477 7.57495 2.39456 7.01053M20.27 11.0501L19.2827 10.0491C20.0775 9.24343 20.5238 8.15034 20.5238 7.01053M20.27 11.0501C21.3252 9.97872 21.9181 8.52569 21.9184 7.01053M10.6071 2.96951L9.62116 3.97198C8.82765 3.16491 7.75105 2.71181 6.62844 2.71181M10.6071 2.96951C9.55185 1.89818 8.12074 1.29619 6.62844 1.2959M13.2972 3.97056C14.0911 3.16491 15.1675 2.71218 16.2899 2.71181M16.2899 1.2959V2.71181M16.2899 1.2959C17.7827 1.2959 19.2143 1.89797 20.2698 2.96968C21.3254 4.04138 21.9184 5.49492 21.9184 7.01053M16.2899 2.71181C17.4128 2.71181 18.4897 3.16471 19.2837 3.97088C20.0777 4.77705 20.5238 5.87044 20.5238 7.01053M20.5238 7.01053H21.9184M6.62844 2.71181V1.2959M6.62844 2.71181C5.50554 2.71181 4.42864 3.16471 3.63463 3.97088C2.84063 4.77705 2.39456 5.87044 2.39456 7.01053M6.62844 1.2959C5.13568 1.2959 3.70407 1.89797 2.64853 2.96968C1.59299 4.04138 1 5.49492 1 7.01053M2.39456 7.01053H1" stroke="black" stroke-width="1.5"/>
</svg>
