<svg width="22" height="21" viewBox="0 0 22 21" fill="none" xmlns="http://www.w3.org/2000/svg">
<path opacity="0.12" d="M19.8535 8.45136C19.8535 8.28321 19.8188 8.1167 19.7514 7.96135C19.684 7.80599 19.5852 7.66483 19.4606 7.54593C19.3361 7.42703 19.1882 7.33271 19.0254 7.26836C18.8627 7.20401 18.6882 7.17089 18.5121 7.17089C18.3359 7.17089 18.1615 7.20401 17.9987 7.26836C17.836 7.33271 17.6881 7.42703 17.5635 7.54593C17.439 7.66483 17.3402 7.80599 17.2727 7.96135C17.2053 8.1167 17.1706 8.28321 17.1706 8.45136H19.8535ZM4.82937 8.45136C4.82937 8.11176 4.68804 7.78607 4.43647 7.54593C4.1849 7.3058 3.8437 7.17089 3.48793 7.17089C3.13215 7.17089 2.79095 7.3058 2.53938 7.54593C2.28781 7.78607 2.14648 8.11176 2.14648 8.45136H4.82937ZM19.7097 11.4057C19.9613 11.6458 20.3026 11.7808 20.6584 11.7808C21.0142 11.7808 21.3554 11.6458 21.6071 11.4057C21.8587 11.1655 22 10.8398 22 10.5001C22 10.1605 21.8587 9.83474 21.6071 9.59457L19.7097 11.4057ZM11 1.28071L11.9487 0.375161C11.8241 0.256223 11.6762 0.161873 11.5134 0.0975025C11.3507 0.0331315 11.1762 0 11 0C10.8238 0 10.6493 0.0331315 10.4866 0.0975025C10.3238 0.161873 10.1759 0.256223 10.0513 0.375161L11 1.28071ZM0.392951 9.59457C0.141349 9.83474 0 10.1605 0 10.5001C0 10.8398 0.141349 11.1655 0.392951 11.4057C0.644553 11.6458 0.985799 11.7808 1.34162 11.7808C1.69744 11.7808 2.03868 11.6458 2.29029 11.4057L0.392951 9.59457ZM5.63423 21H16.3658V18.4391H5.63423V21ZM19.8535 17.6708V8.45136H17.1706V17.6708H19.8535ZM4.82937 17.6708V8.45136H2.14648V17.6708H4.82937ZM21.6071 9.59457L11.9487 0.375161L10.0513 2.18626L19.7097 11.4057L21.6071 9.59457ZM10.0513 0.375161L0.392951 9.59457L2.29029 11.4057L11.9487 2.18626L10.0513 0.375161ZM16.3658 21C17.2908 21 18.1779 20.6492 18.832 20.0249C19.4861 19.4005 19.8535 18.5537 19.8535 17.6708H17.1706C17.1706 17.8745 17.0858 18.0699 16.9349 18.214C16.784 18.3581 16.5792 18.4391 16.3658 18.4391V21ZM5.63423 18.4391C5.42077 18.4391 5.21605 18.3581 5.06511 18.214C4.91417 18.0699 4.82937 17.8745 4.82937 17.6708H2.14648C2.14648 18.5537 2.51394 19.4005 3.16802 20.0249C3.8221 20.6492 4.70922 21 5.63423 21V18.4391Z" fill="#030303"/>
</svg>
