<svg width="20" height="20" viewBox="0 0 20 20" fill="none" xmlns="http://www.w3.org/2000/svg">
<path d="M1 9C1 5.229 1 3.343 2.172 2.172C3.343 1 5.229 1 9 1H11C14.771 1 16.657 1 17.828 2.172C19 3.343 19 5.229 19 9V11C19 14.771 19 16.657 17.828 17.828C16.657 19 14.771 19 11 19H9C5.229 19 3.343 19 2.172 17.828C1 16.657 1 14.771 1 11V9Z" stroke="#030303" stroke-width="2"/>
<path fill-rule="evenodd" clip-rule="evenodd" d="M17 11.585L16.98 11.565C16.59 11.175 16.254 10.839 15.954 10.586C15.637 10.319 15.292 10.084 14.866 9.95602C14.3012 9.78573 13.6988 9.78573 13.134 9.95602C12.708 10.085 12.364 10.319 12.046 10.586C11.746 10.839 11.41 11.176 11.021 11.566L10.992 11.594C10.685 11.9 10.505 12.08 10.364 12.195L10.344 12.212L10.332 12.189C10.245 12.029 10.143 11.796 9.972 11.397L9.919 11.273L9.897 11.221C9.541 10.391 9.242 9.69302 8.947 9.16701C8.642 8.62601 8.262 8.11702 7.67 7.82102C7.17609 7.5736 6.62345 7.46736 6.073 7.51402C5.413 7.56902 4.872 7.90001 4.388 8.28901C3.982 8.61601 3.528 9.05902 3 9.58602V11C3 11.517 3 11.985 3.003 12.411L4.117 11.297C4.807 10.607 5.267 10.15 5.642 9.84702C6.012 9.54902 6.172 9.51202 6.242 9.50701C6.42534 9.49142 6.60943 9.52672 6.774 9.60902C6.835 9.64002 6.97 9.73302 7.204 10.149C7.44 10.569 7.697 11.165 8.081 12.061L8.134 12.185L8.151 12.223C8.3 12.571 8.438 12.893 8.576 13.147C8.721 13.412 8.931 13.73 9.285 13.949C9.7021 14.2075 10.1997 14.3036 10.683 14.219C11.093 14.146 11.406 13.929 11.639 13.737C11.861 13.553 12.109 13.305 12.377 13.037L12.407 13.007C12.832 12.582 13.108 12.307 13.335 12.116C13.553 11.932 13.655 11.888 13.711 11.871C13.8995 11.8141 14.1005 11.8141 14.289 11.871C14.345 11.888 14.447 11.932 14.665 12.116C14.892 12.307 15.168 12.582 15.594 13.008L16.944 14.358C16.99 13.64 16.998 12.748 17 11.585Z" fill="#030303"/>
<path d="M14.5 7C15.3284 7 16 6.32843 16 5.5C16 4.67157 15.3284 4 14.5 4C13.6716 4 13 4.67157 13 5.5C13 6.32843 13.6716 7 14.5 7Z" fill="#030303"/>
</svg>
