<svg width="21" height="21" viewBox="0 0 21 21" fill="none" xmlns="http://www.w3.org/2000/svg">
<path opacity="0.12" d="M14.3899 0.727563H6.69193C5.12092 0.727563 3.61427 1.35164 2.5034 2.46251C1.39254 3.57337 0.768457 5.08003 0.768457 6.65103V14.349C0.768457 15.92 1.39254 17.4267 2.5034 18.5375C3.61427 19.6484 5.12092 20.2725 6.69193 20.2725H14.3899C15.9609 20.2725 17.4675 19.6484 18.5784 18.5375C19.6893 17.4267 20.3134 15.92 20.3134 14.349V6.65103C20.3134 5.08003 19.6893 3.57337 18.5784 2.46251C17.4675 1.35164 15.9609 0.727563 14.3899 0.727563ZM4.07635 4.03546C4.77005 3.34177 5.7109 2.95205 6.69193 2.95205H14.3899C15.3709 2.95205 16.3118 3.34177 17.0055 4.03546C17.6992 4.72915 18.0889 5.67 18.0889 6.65103V14.349C18.0889 15.33 17.6992 16.2709 17.0055 16.9646C16.3118 17.6583 15.3709 18.048 14.3899 18.048H6.69193C5.7109 18.048 4.77005 17.6583 4.07635 16.9646C3.38266 16.2709 2.99295 15.33 2.99295 14.349V6.65103C2.99295 5.67 3.38266 4.72915 4.07635 4.03546ZM15.3521 9.38777H12.4654C12.1704 9.38777 11.8875 9.50495 11.6789 9.71354C11.4703 9.92212 11.3532 10.205 11.3532 10.5C11.3532 10.795 11.4703 11.0779 11.6789 11.2865C11.8875 11.4951 12.1704 11.6123 12.4654 11.6123H15.3521C15.6471 11.6123 15.93 11.4951 16.1386 11.2865C16.3472 11.0779 16.4644 10.795 16.4644 10.5C16.4644 10.205 16.3472 9.92212 16.1386 9.71354C15.93 9.50495 15.6471 9.38777 15.3521 9.38777ZM15.3521 13.2367H10.5409C10.2459 13.2367 9.96302 13.3539 9.75443 13.5625C9.54584 13.7711 9.42866 14.054 9.42866 14.349C9.42866 14.644 9.54584 14.9269 9.75443 15.1355C9.96302 15.3441 10.2459 15.4612 10.5409 15.4612H15.3521C15.6471 15.4612 15.93 15.3441 16.1386 15.1355C16.3472 14.9269 16.4644 14.644 16.4644 14.349C16.4644 14.054 16.3472 13.7711 16.1386 13.5625C15.93 13.3539 15.6471 13.2367 15.3521 13.2367ZM15.3521 5.53879H10.5409C10.2459 5.53879 9.96302 5.65597 9.75443 5.86456C9.54584 6.07314 9.42866 6.35605 9.42866 6.65103C9.42866 6.94602 9.54584 7.22892 9.75443 7.43751C9.96302 7.64609 10.2459 7.76328 10.5409 7.76328H15.3521C15.6471 7.76328 15.93 7.64609 16.1386 7.43751C16.3472 7.22892 16.4644 6.94602 16.4644 6.65103C16.4644 6.35605 16.3472 6.07314 16.1386 5.86456C15.93 5.65597 15.6471 5.53879 15.3521 5.53879Z" fill="#030303" stroke="#030303" stroke-width="0.3"/>
</svg>
