<svg width="17" height="18" viewBox="0 0 17 18" fill="none" xmlns="http://www.w3.org/2000/svg">
<path fill-rule="evenodd" clip-rule="evenodd" d="M4.13762 8.76601L4.9484 4.78497C5.11417 3.97923 5.55828 3.25468 6.2054 2.73421C6.85252 2.21373 7.6628 1.92938 8.49883 1.92938C9.33485 1.92938 10.1451 2.21373 10.7923 2.73421C11.4394 3.25468 11.8835 3.97923 12.0493 4.78497L12.86 8.76601C13.102 9.95437 13.6957 11.0459 14.5666 11.9035L14.8203 12.1517C14.9137 12.2437 14.9805 12.3586 15.0135 12.4845C15.0466 12.6104 15.0449 12.7427 15.0085 12.8677C14.972 12.9927 14.9023 13.1059 14.8064 13.1954C14.7106 13.285 14.5921 13.3477 14.4633 13.3771L13.3897 13.6214C10.1714 14.3518 6.82625 14.3518 3.608 13.6214L2.53568 13.3771C2.40676 13.3479 2.28814 13.2853 2.19213 13.1958C2.09611 13.1063 2.0262 12.9932 1.98964 12.8681C1.95308 12.7431 1.95121 12.6107 1.98422 12.4848C2.01723 12.3588 2.08392 12.2438 2.17737 12.1517L2.43107 11.9035C3.30244 11.0463 3.89624 9.95458 4.13762 8.76601ZM2.21529 8.38797L3.02476 4.40693C3.27931 3.16378 3.96361 2.04559 4.96147 1.24226C5.95932 0.438936 7.20919 0 8.49883 0C9.78846 0 11.0383 0.438936 12.0362 1.24226C13.034 2.04559 13.7183 3.16378 13.9729 4.40693L14.7837 8.38797C14.9484 9.20321 15.3564 9.95158 15.9541 10.5392L16.2078 10.7887C16.5491 11.124 16.7929 11.5432 16.9138 12.0025C17.0347 12.4618 17.0283 12.9446 16.8952 13.4007C16.7622 13.8568 16.5073 14.2695 16.1571 14.596C15.8069 14.9224 15.3742 15.1507 14.904 15.2571L13.8303 15.5014C12.9136 15.7071 11.9865 15.8614 11.058 15.9617C10.9337 16.5383 10.6117 17.0554 10.1459 17.4265C9.68016 17.7975 9.09891 18 8.49948 18C7.90004 18 7.3188 17.7975 6.85305 17.4265C6.38729 17.0554 6.06529 16.5383 5.94095 15.9617C5.00837 15.8619 4.08263 15.7078 3.16861 15.5001L2.09368 15.2558C1.62394 15.1489 1.19182 14.9204 0.842123 14.594C0.492426 14.2676 0.237882 13.8552 0.104879 13.3995C-0.0281249 12.9438 -0.0347457 12.4614 0.0857023 12.0023C0.20615 11.5433 0.449283 11.1242 0.789893 10.7887L1.0449 10.5379C1.64252 9.9503 2.05052 9.20064 2.21529 8.38668V8.38797Z" fill="#030303"/>
</svg>
