<svg width="16" height="16" viewBox="0 0 16 16" fill="none" xmlns="http://www.w3.org/2000/svg">
<path opacity="0.25" fill-rule="evenodd" clip-rule="evenodd" d="M7.11684 1.60502e-08C5.98189 9.67028e-05 4.86342 0.271595 3.85475 0.791843C2.84608 1.31209 1.97645 2.066 1.31841 2.99068C0.660378 3.91536 0.233022 4.98399 0.0719994 6.10741C-0.0890236 7.23083 0.0209557 8.37647 0.392762 9.44874C0.764567 10.521 1.38742 11.4888 2.20935 12.2715C3.03128 13.0541 4.02846 13.6288 5.11768 13.9477C6.20691 14.2665 7.3566 14.3203 8.47084 14.1045C9.58508 13.8887 10.6316 13.4096 11.523 12.7071L14.5809 15.765C14.7389 15.9175 14.9504 16.0019 15.1699 16C15.3895 15.9981 15.5995 15.91 15.7547 15.7548C15.91 15.5995 15.9981 15.3895 16 15.17C16.0019 14.9504 15.9175 14.7389 15.7649 14.581L12.707 11.5231C13.5343 10.4736 14.0494 9.21247 14.1933 7.88392C14.3373 6.55538 14.1043 5.21314 13.521 4.01081C12.9378 2.80849 12.0278 1.79466 10.8952 1.08535C9.76261 0.376043 8.45321 -8.97127e-05 7.11684 1.60502e-08ZM1.67409 7.11717C1.67409 5.67372 2.24752 4.28939 3.26823 3.26871C4.28895 2.24804 5.67333 1.67463 7.11684 1.67463C8.56034 1.67463 9.94473 2.24804 10.9654 3.26871C11.9862 4.28939 12.5596 5.67372 12.5596 7.11717C12.5596 8.56063 11.9862 9.94496 10.9654 10.9656C9.94473 11.9863 8.56034 12.5597 7.11684 12.5597C5.67333 12.5597 4.28895 11.9863 3.26823 10.9656C2.24752 9.94496 1.67409 8.56063 1.67409 7.11717Z" fill="#030303"/>
</svg>
