<svg width="21" height="21" viewBox="0 0 21 21" fill="none" xmlns="http://www.w3.org/2000/svg">
<path d="M20.6728 0.128906C20.9306 0.316406 21.0361 0.566406 20.9892 0.878906L17.9892 18.8789C17.9502 19.1055 17.8252 19.2812 17.6143 19.4062C17.5049 19.4688 17.3838 19.5 17.251 19.5C17.165 19.5 17.0713 19.4805 16.9697 19.4414L11.6612 17.2734L8.82535 20.7305C8.68473 20.9102 8.49333 21 8.25115 21C8.14958 21 8.06365 20.9844 7.99334 20.9531C7.8449 20.8984 7.72576 20.8066 7.63592 20.6777C7.54608 20.5488 7.50116 20.4062 7.50116 20.25V16.1602L17.626 3.75L5.09886 14.5898L0.470043 12.6914C0.180986 12.582 0.0247391 12.3672 0.00130206 12.0469C-0.0143226 11.7344 0.110675 11.5039 0.376295 11.3555L19.8759 0.105469C19.9931 0.0351562 20.1181 0 20.2509 0C20.4072 0 20.5478 0.0429687 20.6728 0.128906Z" fill="#030303"/>
</svg>
