<svg width="51" height="50" viewBox="0 0 51 50" fill="none" xmlns="http://www.w3.org/2000/svg">
<circle cx="25.5" cy="25" r="25" fill="#FBFBFB"/>
<path d="M39.5 25C39.5 17.2681 33.2319 11 25.5 11C17.7681 11 11.5 17.2681 11.5 25C11.5 31.9878 16.6196 37.7797 23.3125 38.8299V29.0469H19.7578V25H23.3125V21.9156C23.3125 18.4069 25.4027 16.4688 28.6006 16.4688C30.1322 16.4688 31.7344 16.7422 31.7344 16.7422V20.1875H29.9691C28.2299 20.1875 27.6875 21.2667 27.6875 22.3739V25H31.5703L30.9496 29.0469H27.6875V38.8299C34.3804 37.7797 39.5 31.9879 39.5 25Z" fill="#1877F2"/>
<path d="M30.9496 29.0469L31.5703 25H27.6875V22.3739C27.6875 21.2666 28.2299 20.1875 29.9691 20.1875H31.7344V16.7422C31.7344 16.7422 30.1322 16.4688 28.6005 16.4688C25.4027 16.4688 23.3125 18.4069 23.3125 21.9156V25H19.7578V29.0469H23.3125V38.8299C24.0361 38.9433 24.7675 39.0002 25.5 39C26.2325 39.0002 26.9639 38.9434 27.6875 38.8299V29.0469H30.9496Z" fill="white"/>
</svg>
