<svg width="51" height="50" viewBox="0 0 51 50" fill="none" xmlns="http://www.w3.org/2000/svg">
<circle cx="25.5" cy="25" r="25" fill="#FBFBFB"/>
<path d="M38.1523 22.4729H37.1129V22.4194H25.5V27.5807H32.7923C31.7284 30.5852 28.8697 32.742 25.5 32.742C21.2245 32.742 17.7581 29.2755 17.7581 25C17.7581 20.7245 21.2245 17.2581 25.5 17.2581C27.4736 17.2581 29.2691 18.0026 30.6362 19.2187L34.2858 15.5691C31.9813 13.4213 28.8987 12.0968 25.5 12.0968C18.3742 12.0968 12.5968 17.8742 12.5968 25C12.5968 32.1258 18.3742 37.9033 25.5 37.9033C32.6258 37.9033 38.4033 32.1258 38.4033 25C38.4033 24.1349 38.3142 23.2903 38.1523 22.4729Z" fill="#FFC107"/>
<path d="M14.0845 18.9942L18.3239 22.1033C19.471 19.2633 22.2491 17.2581 25.5 17.2581C27.4736 17.2581 29.269 18.0026 30.6361 19.2187L34.2858 15.5691C31.9813 13.4213 28.8987 12.0968 25.5 12.0968C20.5439 12.0968 16.2458 14.8949 14.0845 18.9942Z" fill="#FF3D00"/>
<path d="M25.5 37.9033C28.8329 37.9033 31.8613 36.6278 34.151 34.5536L30.1575 31.1742C28.8184 32.1926 27.1823 32.7433 25.5 32.742C22.1439 32.742 19.2942 30.602 18.2207 27.6155L14.0129 30.8575C16.1484 35.0362 20.4852 37.9033 25.5 37.9033Z" fill="#4CAF50"/>
<path d="M38.1523 22.4729H37.1129V22.4194H25.5V27.5807H32.7923C32.2834 29.0106 31.3667 30.2601 30.1555 31.1749L30.1574 31.1736L34.151 34.5529C33.8684 34.8097 38.4032 31.4516 38.4032 25C38.4032 24.1349 38.3142 23.2903 38.1523 22.4729Z" fill="#1976D2"/>
</svg>
