<svg width="65" height="17" viewBox="0 0 65 17" fill="none" xmlns="http://www.w3.org/2000/svg">
<path d="M49.5496 6.19688C49.5314 7.58993 50.8325 8.36725 51.8126 8.82946C52.8196 9.30365 53.1579 9.60776 53.1539 10.0319C53.1464 10.6808 52.3506 10.9673 51.606 10.9784C50.3069 10.9979 49.5515 10.639 48.951 10.3675L48.483 12.4867C49.0855 12.7554 50.2011 12.9897 51.358 13C54.0736 13 55.8503 11.7028 55.8599 9.69146C55.8705 7.13884 52.2114 6.99756 52.2364 5.85661C52.245 5.51064 52.5861 5.14146 53.3336 5.04759C53.7036 5.00017 54.725 4.96388 55.883 5.47992L56.3375 3.42955C55.7148 3.21012 54.9144 3 53.9179 3C51.3619 3 49.5641 4.3149 49.5496 6.19688ZM60.7048 3.17661C60.2089 3.17661 59.791 3.45652 59.6045 3.88607L55.7254 12.8494H58.439L58.979 11.4052H62.295L62.6082 12.8494H65L62.9129 3.17661H60.7048ZM61.0844 5.78959L61.8675 9.42183H59.7228L61.0844 5.78959ZM46.2595 3.17673L44.1205 12.8493H46.7064L48.8444 3.17649L46.2595 3.17673ZM42.4341 3.17673L39.7426 9.76029L38.6539 4.16236C38.5261 3.53745 38.0216 3.17661 37.4614 3.17661H33.0616L33 3.45749C33.9033 3.64717 34.9295 3.95309 35.5513 4.28042C35.9318 4.48038 36.0403 4.65518 36.1653 5.13033L38.2274 12.8494H40.96L45.1495 3.17661L42.4341 3.17673Z" fill="url(#paint0_linear_114_99)"/>
<path d="M9.47168 2.05408H16.4919V14.6683H9.47168V2.05408Z" fill="#FF5F00"/>
<path d="M9.91756 8.36123C9.91756 5.79832 11.121 3.52504 12.9707 2.0541C11.6113 0.984361 9.89532 0.338074 8.02326 0.338074C3.58808 0.338074 0 3.92616 0 8.36123C0 12.7962 3.58808 16.3844 8.02316 16.3844C9.89522 16.3844 11.6112 15.7381 12.9707 14.6683C11.121 13.2197 9.91756 10.9242 9.91756 8.36123Z" fill="#EB001B"/>
<path d="M25.9629 8.36123C25.9629 12.7962 22.3748 16.3844 17.9397 16.3844C16.0677 16.3844 14.3517 15.7381 12.9922 14.6683C14.8642 13.1974 16.0455 10.9242 16.0455 8.36123C16.0455 5.79832 14.8419 3.52504 12.9922 2.0541C14.3516 0.984361 16.0677 0.338074 17.9397 0.338074C22.3748 0.338074 25.9629 3.94849 25.9629 8.36123Z" fill="#F79E1B"/>
<defs>
<linearGradient id="paint0_linear_114_99" x1="1504.17" y1="33.06" x2="1532.18" y2="-994.006" gradientUnits="userSpaceOnUse">
<stop stop-color="#222357"/>
<stop offset="1" stop-color="#254AA5"/>
</linearGradient>
</defs>
</svg>
